<svg width="12" height="12" viewBox="0 0 12 12" fill="none" xmlns="http://www.w3.org/2000/svg">
<path fillRule="evenodd" clipRule="evenodd" d="M5.33173 5.30433V1.36234C5.33173 0.978141 5.64318 0.666687 6.02738 0.666687C6.41158 0.666687 6.72303 0.978141 6.72303 1.36234V5.30433H10.6649C11.0491 5.30433 11.3606 5.61579 11.3606 5.99999C11.3606 6.38418 11.0491 6.69564 10.6649 6.69564H6.72303V10.6377C6.72303 11.0219 6.41158 11.3334 6.02738 11.3334C5.64318 11.3334 5.33173 11.0219 5.33173 10.6377V6.69564H1.38958C1.00538 6.69564 0.693924 6.38418 0.693924 5.99999C0.693924 5.61579 1.00538 5.30433 1.38958 5.30433H5.33173Z"/>
</svg>
