<svg width="15" height="13" viewBox="0 0 15 13" fill="none" xmlns="http://www.w3.org/2000/svg">
    <path d="M14.0423 5.23246C14.0204 5.16781 13.98 5.11026 13.9258 5.06624C13.8716 5.02222 13.8056 4.99346 13.7352 4.98318L9.461 4.38783L7.54956 0.69404C7.51781 0.632843 7.46878 0.581336 7.40802 0.545325C7.34726 0.509315 7.27717 0.490234 7.20566 0.490234C7.13415 0.490234 7.06406 0.509315 7.00329 0.545325C6.94253 0.581336 6.89351 0.632843 6.86175 0.69404L4.95032 4.38783L0.677602 4.97438C0.604676 4.98289 0.53584 5.01122 0.479268 5.05599C0.422696 5.10076 0.380765 5.16009 0.358456 5.22695C0.336146 5.29381 0.334396 5.36538 0.353412 5.43316C0.372428 5.50094 0.411411 5.56208 0.465732 5.60932L3.55781 8.49368L2.82854 12.5511C2.81623 12.6187 2.82397 12.6881 2.85091 12.7517C2.87784 12.8152 2.92288 12.8702 2.98092 12.9105C3.03895 12.9509 3.10766 12.9748 3.17923 12.9797C3.25081 12.9846 3.32239 12.9703 3.38585 12.9383L7.20566 11.0188L11.027 12.9368C11.0905 12.9688 11.162 12.9832 11.2336 12.9783C11.3052 12.9734 11.3739 12.9494 11.4319 12.9091C11.49 12.8688 11.535 12.8137 11.5619 12.7502C11.5889 12.6867 11.5966 12.6172 11.5843 12.5497L10.8535 8.49368L13.9456 5.60932C13.997 5.56144 14.0333 5.50074 14.0504 5.43412C14.0675 5.3675 14.0647 5.29763 14.0423 5.23246Z"/>
</svg>
